<?xml version="1.0" encoding="UTF-8" standalone="no"?>
<svg
   xmlns:dc="http://purl.org/dc/elements/1.1/"
   xmlns:cc="http://creativecommons.org/ns#"
   xmlns:rdf="http://www.w3.org/1999/02/22-rdf-syntax-ns#"
   xmlns:svg="http://www.w3.org/2000/svg"
   xmlns="http://www.w3.org/2000/svg"
   xmlns:sodipodi="http://sodipodi.sourceforge.net/DTD/sodipodi-0.dtd"
   xmlns:inkscape="http://www.inkscape.org/namespaces/inkscape"
   version="1.1"
   id="Layer_1"
   x="0px"
   y="0px"
   viewBox="0 0 11 21"
   xml:space="preserve"
   sodipodi:docname="19cityicon.svg"
   width="11"
   height="21"
   inkscape:version="1.0.2 (e86c8708, 2021-01-15)"><metadata
   id="metadata816"><rdf:RDF><cc:Work
       rdf:about=""><dc:format>image/svg+xml</dc:format><dc:type
         rdf:resource="http://purl.org/dc/dcmitype/StillImage" /><dc:title></dc:title></cc:Work></rdf:RDF></metadata><defs
   id="defs814" /><sodipodi:namedview
   pagecolor="#ffffff"
   bordercolor="#666666"
   borderopacity="1"
   objecttolerance="10"
   gridtolerance="10"
   guidetolerance="10"
   inkscape:pageopacity="0"
   inkscape:pageshadow="2"
   inkscape:window-width="1173"
   inkscape:window-height="480"
   id="namedview812"
   showgrid="false"
   inkscape:zoom="1.76"
   inkscape:cx="19.489999"
   inkscape:cy="37.42"
   inkscape:window-x="0"
   inkscape:window-y="23"
   inkscape:window-maximized="0"
   inkscape:current-layer="Layer_1" />
<style
   type="text/css"
   id="style803">
	.st0{fill:#9E005D;}
	.st1{fill:#F05B40;}
</style>
<g
   id="g809"
   transform="matrix(0.27527528,0,0,0.28436019,-35.926177,-32.01327)">
	<path
   class="st0"
   d="m 150.49,112.58 c -11.03,0 -19.98,8.94 -19.98,19.98 0,20.59 19.98,37.79 19.98,37.79 0,0 19.98,-17.19 19.98,-37.79 0,-11.03 -8.94,-19.98 -19.98,-19.98 z m 0,29.54 c -5.28,0 -9.56,-4.28 -9.56,-9.55 0,-5.28 4.28,-9.56 9.56,-9.56 5.28,0 9.56,4.28 9.56,9.56 0,5.27 -4.28,9.55 -9.56,9.55 z"
   id="path805" />
	<path
   class="st1"
   d="m 150.49,186.43 c -5.28,0 -9.56,-2.14 -9.56,-4.78 0,-2.64 4.28,-4.78 9.56,-4.78 5.28,0 9.56,2.14 9.56,4.78 0,2.64 -4.28,4.78 -9.56,4.78 z"
   id="path807" />
</g>
</svg>
