<?xml version="1.0" encoding="UTF-8" standalone="no"?>
<svg
   xmlns:dc="http://purl.org/dc/elements/1.1/"
   xmlns:cc="http://creativecommons.org/ns#"
   xmlns:rdf="http://www.w3.org/1999/02/22-rdf-syntax-ns#"
   xmlns:svg="http://www.w3.org/2000/svg"
   xmlns="http://www.w3.org/2000/svg"
   xmlns:sodipodi="http://sodipodi.sourceforge.net/DTD/sodipodi-0.dtd"
   xmlns:inkscape="http://www.inkscape.org/namespaces/inkscape"
   version="1.1"
   id="Layer_1"
   x="0px"
   y="0px"
   viewBox="0 0 11 21"
   xml:space="preserve"
   sodipodi:docname="22cityicon.svg"
   width="11"
   height="21"
   inkscape:version="1.0.2 (e86c8708, 2021-01-15)"><metadata
   id="metadata885"><rdf:RDF><cc:Work
       rdf:about=""><dc:format>image/svg+xml</dc:format><dc:type
         rdf:resource="http://purl.org/dc/dcmitype/StillImage" /><dc:title></dc:title></cc:Work></rdf:RDF></metadata><defs
   id="defs883" /><sodipodi:namedview
   pagecolor="#ffffff"
   bordercolor="#666666"
   borderopacity="1"
   objecttolerance="10"
   gridtolerance="10"
   guidetolerance="10"
   inkscape:pageopacity="0"
   inkscape:pageshadow="2"
   inkscape:window-width="1180"
   inkscape:window-height="480"
   id="namedview881"
   showgrid="false"
   inkscape:zoom="1.76"
   inkscape:cx="19.489999"
   inkscape:cy="37.42"
   inkscape:window-x="40"
   inkscape:window-y="51"
   inkscape:window-maximized="0"
   inkscape:current-layer="Layer_1" />
<style
   type="text/css"
   id="style855">
	.st0{fill:url(#SVGID_1_);}
	.st1{fill:#F05B40;}
</style>
<g
   id="g878"
   transform="matrix(0.27527528,0,0,0.28436019,-35.926177,-32.01327)">
	<linearGradient
   id="SVGID_1_"
   gradientUnits="userSpaceOnUse"
   x1="130.5146"
   y1="141.4671"
   x2="170.4715"
   y2="141.4671">
		<stop
   offset="0"
   style="stop-color:#CCE0F4"
   id="stop857" />
		<stop
   offset="0.0641"
   style="stop-color:#C3DCF2"
   id="stop859" />
		<stop
   offset="0.1706"
   style="stop-color:#A9D2EE"
   id="stop861" />
		<stop
   offset="0.3066"
   style="stop-color:#80C2E7"
   id="stop863" />
		<stop
   offset="0.4649"
   style="stop-color:#47ACDE"
   id="stop865" />
		<stop
   offset="0.5674"
   style="stop-color:#1E9CD7"
   id="stop867" />
		<stop
   offset="0.8652"
   style="stop-color:#0075BE"
   id="stop869" />
		<stop
   offset="0.9944"
   style="stop-color:#005B97"
   id="stop871" />
	</linearGradient>
	<path
   class="st0"
   d="m 150.49,112.58 c -11.03,0 -19.98,8.94 -19.98,19.98 0,20.59 19.98,37.79 19.98,37.79 0,0 19.98,-17.19 19.98,-37.79 0,-11.03 -8.94,-19.98 -19.98,-19.98 z m 0,29.54 c -5.28,0 -9.56,-4.28 -9.56,-9.55 0,-5.28 4.28,-9.56 9.56,-9.56 5.28,0 9.56,4.28 9.56,9.56 0,5.27 -4.28,9.55 -9.56,9.55 z"
   id="path874"
   style="fill:url(#SVGID_1_)" />
	<path
   class="st1"
   d="m 150.49,186.43 c -5.28,0 -9.56,-2.14 -9.56,-4.78 0,-2.64 4.28,-4.78 9.56,-4.78 5.28,0 9.56,2.14 9.56,4.78 0,2.64 -4.28,4.78 -9.56,4.78 z"
   id="path876" />
</g>
</svg>
