<svg id="Layer_1" data-name="Layer 1" xmlns="http://www.w3.org/2000/svg" width="20" height="25" viewBox="0 0 20 25"><defs><style>.cls-1{fill:#f7981f;}.cls-2{fill:#fff;}</style></defs><title>icons2</title><path class="cls-1" d="M10,17.59H4a3.81,3.81,0,0,1-4-3.52,3.86,3.86,0,0,1,2.62-3.63,5.14,5.14,0,0,1,3.43-5C9.75,4,12.18,7.64,12.31,8.18a2.64,2.64,0,0,1,2.47-.24,2.61,2.61,0,0,1,1.57,2.3,4.09,4.09,0,0,1,3.52,3.28c.68,3.06-3,4.07-3.61,4.07Z"/><path class="cls-2" d="M7.62,15.59H6.75l-.35-1.1H4.8l-.33,1.1H3.62l1.55-4.87H6ZM6.14,13.67l-.55-1.81-.54,1.81Z"/><path class="cls-2" d="M7.9,15.59l-1-4.87h.83l.6,3.35.73-3.35h1l.7,3.4.62-3.4h.81l-1,4.87h-.86L9.56,12l-.79,3.64Z"/><path class="cls-2" d="M12,14l.78-.09q.13.93.87.93a.81.81,0,0,0,.58-.19.59.59,0,0,0,.21-.47.51.51,0,0,0-.08-.28.52.52,0,0,0-.22-.19,5.08,5.08,0,0,0-.72-.25,2.62,2.62,0,0,1-.76-.34,1.31,1.31,0,0,1-.38-.48,1.53,1.53,0,0,1-.14-.64,1.48,1.48,0,0,1,.18-.72,1.22,1.22,0,0,1,.5-.48,1.71,1.71,0,0,1,.79-.16,1.55,1.55,0,0,1,1.1.38,1.57,1.57,0,0,1,.42,1.09l-.81.05a.88.88,0,0,0-.23-.55.75.75,0,0,0-.5-.16.78.78,0,0,0-.5.14.41.41,0,0,0-.18.34.44.44,0,0,0,.16.33,2.32,2.32,0,0,0,.74.3,3.07,3.07,0,0,1,.87.37,1.36,1.36,0,0,1,.42.5,1.86,1.86,0,0,1,.14.75,1.53,1.53,0,0,1-.39,1.06,1.56,1.56,0,0,1-1.22.43C12.64,15.67,12.1,15.12,12,14Z"/></svg>