<svg id="Layer_1" data-name="Layer 1" xmlns="http://www.w3.org/2000/svg" width="20" height="25" viewBox="0 0 20 25"><defs><style>.cls-1{fill:none;stroke:#5b9bd5;stroke-miterlimit:10;}.cls-2{fill:#fff;}.cls-3{fill:#5b9bd5;}</style></defs><title>icons2</title><polygon class="cls-1" points="1.8 13.04 10 6.98 18.25 13.04 1.8 13.04"/><path class="cls-2" d="M1.8,14.28A1.25,1.25,0,1,1,3,13,1.24,1.24,0,0,1,1.8,14.28Z"/><path class="cls-3" d="M1.8,12.29a.75.75,0,0,1,.74.75.74.74,0,0,1-.74.74A.75.75,0,0,1,1.05,13a.76.76,0,0,1,.75-.75m0-1A1.75,1.75,0,1,0,3.54,13,1.75,1.75,0,0,0,1.8,11.29Z"/><path class="cls-2" d="M18.25,14.28A1.25,1.25,0,1,1,19.5,13,1.24,1.24,0,0,1,18.25,14.28Z"/><path class="cls-3" d="M18.25,12.29A.75.75,0,0,1,19,13a.75.75,0,1,1-.75-.75m0-1A1.75,1.75,0,1,0,20,13a1.74,1.74,0,0,0-1.75-1.75Z"/><path class="cls-2" d="M10,8.23A1.25,1.25,0,1,1,11.25,7,1.24,1.24,0,0,1,10,8.23Z"/><path class="cls-3" d="M10,6.24A.75.75,0,1,1,9.26,7,.74.74,0,0,1,10,6.24m0-1A1.75,1.75,0,1,0,11.75,7,1.74,1.74,0,0,0,10,5.24Z"/></svg>