<svg id="Layer_1" data-name="Layer 1" xmlns="http://www.w3.org/2000/svg" viewBox="0 0 476.06 57.33"><defs><style>.cls-1{fill:#0f4c81;}</style></defs><path class="cls-1" d="M775.07,440.82a12.6,12.6,0,0,1,2.64,7.85,13.15,13.15,0,0,1-1.26,5.58,14.86,14.86,0,0,1-3.62,4.85,17.83,17.83,0,0,1-5.74,3.29,20.45,20.45,0,0,1-7,1.18H740.67l.08-52.92h15.14q7.41,0,11.81,4.15a13.22,13.22,0,0,1,3.13,4.32,12.22,12.22,0,0,1,1.1,5.05,11.87,11.87,0,0,1-1.51,5.94,11.64,11.64,0,0,1-3.7,4.15l-.73.49c1,.33,1.92.65,2.68,1A16.08,16.08,0,0,1,775.07,440.82Zm-30.66-7.13h11.32a23.2,23.2,0,0,0,3.66-.24,14.38,14.38,0,0,0,2.93-.81,11.22,11.22,0,0,0,4-3.1,7.88,7.88,0,0,0,1.92-5.37,8.77,8.77,0,0,0-1.43-4.77,10.19,10.19,0,0,0-4.23-3.62,15.09,15.09,0,0,0-6.72-1.38H744.41Zm23,24.59a12.58,12.58,0,0,0,4.89-4.19,9.6,9.6,0,0,0,1.71-5.42,9.14,9.14,0,0,0-2-5.74,12.33,12.33,0,0,0-4.76-3.78,24.68,24.68,0,0,0-9.85-1.71h-13v22.47h15.71A15.77,15.77,0,0,0,767.45,458.28Z" transform="translate(-740.67 -410)"/><path class="cls-1" d="M821.35,463.57l-22-26.7h6.51a26,26,0,0,0,9.77-1.55,13,13,0,0,0,4.81-3.95,9.35,9.35,0,0,0,2-5.82,9.59,9.59,0,0,0-1.71-5.41,12.72,12.72,0,0,0-4.88-4.2,15.92,15.92,0,0,0-7.33-1.62H793.75v49.25h-3.66V410.65h18.48a20.57,20.57,0,0,1,7,1.18,17.34,17.34,0,0,1,5.7,3.38,14.92,14.92,0,0,1,3.62,4.81,13.11,13.11,0,0,1-1.42,13.55,15.54,15.54,0,0,1-6.35,5.09,16.89,16.89,0,0,1-4.93,1.43,43.29,43.29,0,0,1-5.09.28l19.14,23.2Z" transform="translate(-740.67 -410)"/><path class="cls-1" d="M841.38,463.57V410.65H845v52.92Z" transform="translate(-740.67 -410)"/><path class="cls-1" d="M904.15,463.57H885A25.89,25.89,0,0,1,871.67,460a26.67,26.67,0,0,1-9.69-9.73,27,27,0,0,1,0-26.87,27.09,27.09,0,0,1,9.69-9.77,26.2,26.2,0,0,1,24-1.34,26.82,26.82,0,0,1,8.83,6.35l-2.69,2.52A23,23,0,0,0,885,413.83a22.36,22.36,0,0,0-11.48,3.09,23.16,23.16,0,0,0-8.39,8.35,23.09,23.09,0,0,0,0,23.08,23.38,23.38,0,0,0,8.39,8.43A22.11,22.11,0,0,0,885,459.91h15.31v-19H882.9v-3.66h21.25Z" transform="translate(-740.67 -410)"/><path class="cls-1" d="M954.88,439H923.61v24.58h-3.74V410.65h3.74v24.59h31.27V410.65h3.66v52.92h-3.66Z" transform="translate(-740.67 -410)"/><path class="cls-1" d="M1015.7,410.65v3.75H994.77v49.17H991V414.4H970v-3.75Z" transform="translate(-740.67 -410)"/><path class="cls-1" d="M1105.5,463.57V421.72l-23.45,33.47-23.77-33.55v41.93h-3.66V410l27.43,38.76L1109.17,410v53.57Z" transform="translate(-740.67 -410)"/><path class="cls-1" d="M1131.07,450.14l-6.27,13.43h-4.07L1145.64,410l23.53,53.57h-4l-5.94-13.43Zm14.41-31.1-12.7,27.44h24.83Z" transform="translate(-740.67 -410)"/><path class="cls-1" d="M1180.74,463.57l-.09-52.92h18.89a18.41,18.41,0,0,1,8.59,2,16.42,16.42,0,0,1,6.27,5.45,13.19,13.19,0,0,1,0,14.94,16.37,16.37,0,0,1-6.27,5.5,18.41,18.41,0,0,1-8.59,2H1184.4v23Zm3.66-26.78h15.14a15.13,15.13,0,0,0,6.76-1.51,12.78,12.78,0,0,0,4.93-4.07,9.41,9.41,0,0,0,1.83-5.58,9.54,9.54,0,0,0-1.83-5.66,12.87,12.87,0,0,0-4.93-4.07,15.26,15.26,0,0,0-6.76-1.5h-15.22Z" transform="translate(-740.67 -410)"/><circle class="cls-1" cx="315.67" cy="52.86" r="3.52"/><polyline class="cls-1" points="362.87 51.69 366.63 57.33 370.39 51.69"/></svg>