<svg id="Layer_1" data-name="Layer 1" xmlns="http://www.w3.org/2000/svg" width="20" height="25" viewBox="0 0 20 25"><defs><style>.cls-1{fill:#f7981f;}.cls-2{fill:#143306;}</style></defs><title>icons2</title><path class="cls-1" d="M9.8,13.16H5.35a2.81,2.81,0,0,1-2.92-2.59A2.84,2.84,0,0,1,4.36,7.89,3.79,3.79,0,0,1,6.89,4.23c2.73-1.06,4.52,1.6,4.62,2a1.91,1.91,0,0,1,3,1.52,3,3,0,0,1,2.6,2.41c.5,2.26-2.23,3-2.67,3Z"/><path class="cls-2" d="M17.36,0H2.64A2.64,2.64,0,0,0,0,2.64V15.18a2.64,2.64,0,0,0,2.64,2.64h3l3.44,2.79a1.45,1.45,0,0,0,1.84,0l3.44-2.79h3A2.64,2.64,0,0,0,20,15.18V2.64A2.64,2.64,0,0,0,17.36,0ZM18,15.18a.64.64,0,0,1-.64.64H2.64A.64.64,0,0,1,2,15.18V2.64A.64.64,0,0,1,2.64,2H17.36a.64.64,0,0,1,.64.64Z"/></svg>