<svg id="Layer_1" data-name="Layer 1" xmlns="http://www.w3.org/2000/svg" width="20" height="25" viewBox="0 0 20 25"><defs><style>.cls-1{fill:#3d3797;}.cls-2{fill:#524cb0;}.cls-3{fill:#fff;}</style></defs><title>icons2</title><path class="cls-1" d="M17.36,0H2.64A2.64,2.64,0,0,0,0,2.64V15.18a2.64,2.64,0,0,0,2.64,2.64h3l3.44,2.79a1.45,1.45,0,0,0,1.84,0l3.44-2.79h3A2.64,2.64,0,0,0,20,15.18V2.64A2.64,2.64,0,0,0,17.36,0Z"/><rect class="cls-2" x="2" y="2" width="16" height="13.82" rx="0.64"/><path class="cls-3" d="M10,13.29c-3.67,0-5.92-1.15-5.92-2s2.25-2,5.92-2,5.92,1.15,5.92,2S13.67,13.29,10,13.29Z"/><path class="cls-1" d="M10,9.82c3.5,0,5.41,1.11,5.44,1.5S13.5,12.81,10,12.81,4.59,11.7,4.56,11.32,6.5,9.82,10,9.82m0-1c-3.53,0-6.4,1.1-6.4,2.46s2.87,2.45,6.4,2.45,6.4-1.1,6.4-2.45S13.53,8.86,10,8.86Z"/><path class="cls-3" d="M10,11.65c-3.67,0-5.92-1.15-5.92-2s2.25-2,5.92-2,5.92,1.14,5.92,2S13.67,11.65,10,11.65Z"/><path class="cls-1" d="M10,8.19c3.5,0,5.41,1.11,5.44,1.49S13.5,11.17,10,11.17,4.59,10.06,4.56,9.68,6.5,8.19,10,8.19m0-1c-3.53,0-6.4,1.1-6.4,2.46s2.87,2.45,6.4,2.45S16.4,11,16.4,9.68,13.53,7.22,10,7.22Z"/><path class="cls-3" d="M10,10C6.33,10,4.08,8.87,4.08,8s2.25-2,5.92-2,5.92,1.15,5.92,2S13.67,10,10,10Z"/><path class="cls-1" d="M10,6.55c3.5,0,5.41,1.11,5.44,1.49S13.5,9.54,10,9.54,4.59,8.43,4.56,8,6.5,6.55,10,6.55m0-1C6.47,5.59,3.6,6.69,3.6,8S6.47,10.5,10,10.5,16.4,9.4,16.4,8,13.53,5.59,10,5.59Z"/><path class="cls-3" d="M10,8.38c-3.67,0-5.92-1.15-5.92-2s2.25-2,5.92-2,5.92,1.15,5.92,2S13.67,8.38,10,8.38Z"/><path class="cls-1" d="M10,4.91c3.5,0,5.41,1.11,5.44,1.5S13.5,7.9,10,7.9,4.59,6.79,4.56,6.41,6.5,4.91,10,4.91m0-1C6.47,4,3.6,5.05,3.6,6.41S6.47,8.86,10,8.86s6.4-1.1,6.4-2.45S13.53,4,10,4Z"/></svg>