<svg id="Layer_1" data-name="Layer 1" xmlns="http://www.w3.org/2000/svg" width="20" height="25" viewBox="0 0 20 25"><defs><style>.cls-1{fill:#a1a1a4;}</style></defs><title>icons2</title><path class="cls-1" d="M20,11.54c0-1.21-4.48-2.2-10-2.2a39,39,0,0,0-5.71.39c0-.07,0-.15.08-.23A7.17,7.17,0,0,1,11.2,5.1a8.13,8.13,0,0,1,2.59.43,8.3,8.3,0,0,0-3.26-.66A7.33,7.33,0,0,0,3.36,9.71c0,.12-.08.25-.11.37a6.26,6.26,0,0,0-.17,1.42q0,.3,0,.6a9.64,9.64,0,0,0,1,.26A6.22,6.22,0,0,1,4,11.5a6.31,6.31,0,0,1,.16-1.36,35.52,35.52,0,0,1,6.18-.48c5,0,9.13.82,9.13,1.84s-4.09,1.84-9.13,1.84-9.13-.81-9.13-1.84c0-.35.49-.68,1.36-1a3.58,3.58,0,0,1,.09-.45v0C1,10.44,0,11,0,11.54s1.28,1.23,3.32,1.63a7.35,7.35,0,0,0,7.21,5,8.3,8.3,0,0,0,3.26-.66,8.13,8.13,0,0,1-2.59.43,7.15,7.15,0,0,1-6.88-4.56,38.56,38.56,0,0,0,5.68.41c5.52,0,10-1,10-2.2h0Z"/></svg>