<svg id="Layer_1" data-name="Layer 1" xmlns="http://www.w3.org/2000/svg" width="20" height="25" viewBox="0 0 20 25"><defs><style>.cls-1{fill:red;}</style></defs><title>icons2</title><polygon class="cls-1" points="18.67 7.27 18.67 13.11 17.34 13.58 17.34 6.81 13.34 5.41 13.34 14.97 12.01 15.44 12.01 4.95 10.01 4.25 8.01 4.95 8.01 15.44 6.67 14.97 6.67 5.41 2.67 6.81 2.67 13.58 1.34 13.11 1.34 7.27 0.01 7.74 0.01 14.06 4.01 15.46 4.01 7.76 5.34 7.29 5.34 15.92 9.34 17.32 9.34 5.89 10.01 5.66 10.67 5.89 10.67 17.32 14.68 15.92 14.68 7.29 16.01 7.76 16.01 15.46 20.01 14.06 20.01 7.74 18.67 7.27"/></svg>