<svg id="Layer_1" data-name="Layer 1" xmlns="http://www.w3.org/2000/svg" width="20" height="25" viewBox="0 0 20 25"><defs><style>.cls-1{fill:#f58537;}.cls-2{fill:#fbbf93;}.cls-3{fill:#6b3a19;}.cls-4{fill:#f58b40;}.cls-5{fill:#9d5025;}</style></defs><title>icons2</title><polygon class="cls-1" points="10 19.5 10 24 20 19.05 20 16.34 10 19.5"/><polygon class="cls-2" points="10 19.5 10 17.23 15.47 16.15 20 16.34 10 19.5"/><polygon class="cls-1" points="10 17.23 10 7.71 15.35 8.94 15.35 11.01 20 11.55 20 13.58 15.39 13.73 15.47 16.15 10 17.23"/><polygon class="cls-3" points="10 7.71 10 5.6 20 8.36 15.35 8.94 10 7.71"/><polygon class="cls-4" points="10 5.6 10 1.3 20 5.87 20 8.36 10 5.6"/><polygon class="cls-5" points="10 19.5 10 24 0 19.05 0 16.34 10 19.5"/><polygon class="cls-2" points="10 19.5 10 17.23 4.53 16.15 0 16.34 10 19.5"/><polygon class="cls-5" points="10 17.23 10 7.71 4.65 8.94 4.65 11.01 0 11.55 0 13.58 4.61 13.73 4.53 16.15 10 17.23"/><polygon class="cls-3" points="10 7.71 10 5.6 0 8.36 4.65 8.94 10 7.71"/><polygon class="cls-5" points="10 5.6 10 1.3 0 5.87 0 8.36 10 5.6"/></svg>