<svg id="Layer_1" data-name="Layer 1" xmlns="http://www.w3.org/2000/svg" width="20" height="25" viewBox="0 0 20 25"><defs><style>.cls-1{fill:#1f70c1;}.cls-2{fill:none;}</style></defs><title>icons2</title><rect class="cls-1" y="14.1" width="0.03" height="0.55"/><rect class="cls-2" y="8.27" width="3.89" height="0.52"/><rect class="cls-2" x="1.12" y="10.39" width="1.68" height="0.52"/><rect class="cls-2" x="1.12" y="11.46" width="1.68" height="0.52"/><rect class="cls-2" x="0.03" y="14.65" width="3.89" height="0.52"/><polygon class="cls-2" points="2.8 9.36 3.89 9.36 3.89 9.33 0 9.33 0 9.36 1.12 9.36 1.12 9.85 2.8 9.85 2.8 9.36"/><rect class="cls-2" y="7.7" width="3.89" height="0.02"/><polygon class="cls-2" points="3.92 14.07 2.8 14.07 2.8 13.59 1.12 13.59 1.12 14.07 0.03 14.07 0.03 14.1 3.92 14.1 3.92 14.07"/><rect class="cls-2" x="1.12" y="12.52" width="1.68" height="0.52"/><rect class="cls-1" x="0.03" y="15.17" width="3.89" height="0.55"/><rect class="cls-1" x="0.03" y="14.1" width="3.89" height="0.55"/><rect class="cls-1" y="7.72" width="3.89" height="0.55"/><rect class="cls-1" x="1.12" y="13.04" width="1.68" height="0.55"/><rect class="cls-1" x="1.12" y="11.98" width="1.68" height="0.55"/><rect class="cls-1" x="1.12" y="9.85" width="1.68" height="0.55"/><rect class="cls-1" y="8.78" width="3.89" height="0.55"/><rect class="cls-1" x="1.12" y="10.91" width="1.68" height="0.55"/><rect class="cls-2" x="17.18" y="11.46" width="1.68" height="0.52"/><rect class="cls-2" x="12.19" y="12.52" width="1.68" height="0.52"/><polygon class="cls-2" points="19.95 8.79 19.95 8.27 16.63 8.27 16.45 8.79 19.95 8.79"/><polygon class="cls-2" points="12.19 10.39 12.19 10.91 15.37 10.91 15.18 10.39 12.19 10.39"/><polygon class="cls-2" points="15.14 14.65 15.32 15.17 15.75 15.17 15.93 14.65 15.14 14.65"/><polygon class="cls-2" points="18.86 10.91 18.86 10.39 15.88 10.39 15.7 10.91 18.86 10.91"/><rect class="cls-2" x="17.18" y="12.52" width="1.68" height="0.52"/><rect class="cls-2" x="11.1" y="14.65" width="2.77" height="0.52"/><polygon class="cls-2" points="17.18 14.1 19.98 14.1 19.98 14.07 18.86 14.07 18.86 13.59 17.18 13.59 17.18 14.1"/><polygon class="cls-2" points="12.19 13.59 12.19 14.07 11.1 14.07 11.1 14.1 13.87 14.1 13.87 13.59 12.19 13.59"/><polygon class="cls-2" points="14.6 8.79 14.42 8.27 11.07 8.27 11.07 8.79 14.6 8.79"/><rect class="cls-2" x="12.19" y="11.46" width="1.68" height="0.52"/><rect class="cls-2" x="17.18" y="14.65" width="2.8" height="0.52"/><polygon class="cls-2" points="16.88 11.97 17.07 11.46 13.98 11.46 14.17 11.97 16.88 11.97"/><polygon class="cls-2" points="19.95 9.36 19.95 9.33 16.25 9.33 16.07 9.85 18.86 9.85 18.86 9.36 19.95 9.36"/><polygon class="cls-2" points="14.94 14.1 16.13 14.1 16.31 13.59 14.75 13.59 14.94 14.1"/><polygon class="cls-2" points="14.55 13.04 16.51 13.04 16.69 12.52 14.37 12.52 14.55 13.04"/><polygon class="cls-2" points="11.07 9.36 12.19 9.36 12.19 9.85 14.98 9.85 14.8 9.33 11.07 9.33 11.07 9.36"/><rect class="cls-1" x="17.18" y="11.98" width="1.68" height="0.55"/><polygon class="cls-1" points="15.52 15.71 15.55 15.71 15.75 15.17 15.32 15.17 15.52 15.71"/><polygon class="cls-1" points="15.88 10.39 18.86 10.39 18.86 9.85 16.07 9.85 15.88 10.39"/><rect class="cls-1" x="11.1" y="15.17" width="2.77" height="0.55"/><rect class="cls-1" x="17.18" y="15.17" width="2.8" height="0.55"/><polygon class="cls-1" points="15.7 10.91 15.53 11.38 15.37 10.91 12.19 10.91 12.19 11.46 13.87 11.46 13.87 11.15 13.98 11.46 17.07 11.46 17.18 11.15 17.18 11.46 18.86 11.46 18.86 10.91 15.7 10.91"/><polygon class="cls-1" points="14.22 7.72 11.07 7.72 11.07 8.27 14.42 8.27 14.22 7.72"/><polygon class="cls-1" points="19.95 7.72 16.82 7.72 16.63 8.27 19.95 8.27 19.95 7.72"/><polygon class="cls-1" points="15.14 14.65 15.93 14.65 16.13 14.1 14.94 14.1 15.14 14.65"/><polygon class="cls-1" points="14.75 13.59 16.31 13.59 16.51 13.04 14.55 13.04 14.75 13.59"/><rect class="cls-1" x="11.1" y="14.1" width="2.77" height="0.55"/><polygon class="cls-1" points="12.19 10.39 15.18 10.39 14.98 9.85 12.19 9.85 12.19 10.39"/><polygon class="cls-1" points="16.69 12.52 16.88 11.97 14.17 11.97 14.37 12.52 16.69 12.52"/><rect class="cls-1" x="12.19" y="11.98" width="1.68" height="0.55"/><polygon class="cls-1" points="11.07 9.33 14.8 9.33 14.6 8.79 11.07 8.79 11.07 9.33"/><rect class="cls-1" x="17.18" y="14.1" width="2.8" height="0.55"/><polygon class="cls-1" points="16.45 8.79 16.25 9.33 19.95 9.33 19.95 8.79 16.45 8.79"/><rect class="cls-1" x="17.18" y="13.04" width="1.68" height="0.55"/><rect class="cls-1" x="12.19" y="13.04" width="1.68" height="0.55"/><polygon class="cls-2" points="4.44 14.65 4.44 15.17 9.98 15.17 10.43 14.65 4.44 14.65"/><polygon class="cls-2" points="7.24 9.36 8.88 9.36 8.88 9.85 10.67 9.85 10.67 9.85 10.62 9.33 4.44 9.33 4.44 9.36 5.56 9.36 5.56 9.85 7.24 9.85 7.24 9.36"/><polygon class="cls-2" points="7.24 12.56 8.88 12.56 8.88 13.04 10.56 13.04 10.33 12.52 5.56 12.52 5.56 13.04 7.24 13.04 7.24 12.56"/><polygon class="cls-2" points="10.43 8.79 9.98 8.27 4.44 8.27 4.44 8.79 10.43 8.79"/><polygon class="cls-2" points="5.56 11.48 5.56 11.96 5.56 11.97 9.86 11.97 9.86 11.96 9.86 11.48 9.86 11.46 5.56 11.46 5.56 11.48"/><polygon class="cls-2" points="8.88 10.88 7.24 10.88 7.24 10.39 5.56 10.39 5.56 10.91 10.33 10.91 10.56 10.39 10.56 10.39 8.88 10.39 8.88 10.88"/><polygon class="cls-2" points="10.67 13.59 10.67 13.59 8.88 13.59 8.88 14.07 7.24 14.07 7.24 13.59 5.56 13.59 5.56 14.07 4.44 14.07 4.44 14.1 10.62 14.1 10.67 13.59"/><path class="cls-1" d="M4.44,15.71H8.67A2.13,2.13,0,0,0,10,15.17H4.44Z"/><path class="cls-1" d="M10.62,14.1H4.44v.55h6A1.54,1.54,0,0,0,10.62,14.1Z"/><rect class="cls-1" x="5.56" y="13.04" width="1.68" height="0.55"/><rect class="cls-1" x="5.56" y="9.85" width="1.68" height="0.55"/><path class="cls-1" d="M8.88,9.85v.54h1.68a1.52,1.52,0,0,0,.11-.54Z"/><path class="cls-1" d="M10,8.27a2.11,2.11,0,0,0-1.31-.55H4.44v.55Z"/><path class="cls-1" d="M10.62,9.33a1.44,1.44,0,0,0-.19-.54h-6v.55Z"/><path class="cls-1" d="M5.56,11.46h4.3a1.76,1.76,0,0,0,.47-.55H5.56Z"/><path class="cls-1" d="M10.56,13H8.88v.55h1.79a1.83,1.83,0,0,0-.11-.55Z"/><path class="cls-1" d="M5.56,12.52h4.77A1.81,1.81,0,0,0,9.86,12H5.56Z"/></svg>