<svg id="Layer_1" data-name="Layer 1" xmlns="http://www.w3.org/2000/svg" width="20" height="25" viewBox="0 0 20 25"><defs><style>.cls-1{fill:#d4d900;}.cls-2{fill:#009be0;}.cls-3{fill:#013179;}</style></defs><title>icons2</title><polygon class="cls-1" points="8.07 10.96 8.43 15.11 9.71 15.11 11.47 12.76 9.71 10.46 7.83 10.46 8.07 10.96"/><polygon class="cls-2" points="14.88 10.96 14.51 15.11 13.23 15.11 11.47 12.76 13.23 10.46 15.11 10.46 14.88 10.96"/><path class="cls-3" d="M14.26,10H12v.89h.58c-.21.24-.8,1-.93,1.18-.14-.14-.78-.94-1-1.18h.55V10H7.49v.89h1.6l1.65,1.81c-.16.17-1.55,1.81-1.64,1.91H8.37v.93h2.57V14.6H10.4l1-1.21c.15.16.82.94,1.07,1.21H12v.93h2.71V14.6H14c-.09-.09-1.54-1.75-1.7-1.92.15-.17,1.59-1.7,1.67-1.8h.49V10Z"/><path class="cls-3" d="M15.69,10.85V10h-2v.89h.79V14.6h-.81v.93h2.8V14.6h-.76V12.25A1.35,1.35,0,0,1,17,10.86,1.16,1.16,0,0,1,18,12V14.6h-.73v.93H20V14.6h-.72V11.54A1.61,1.61,0,0,0,17.55,9.9a2,2,0,0,0-1.86.95"/><path class="cls-3" d="M5.4,10.85V10h-2v.89h.78V14.6H3.35v.93H6.16V14.6H5.4V12.25a1.35,1.35,0,0,1,1.34-1.39,1.16,1.16,0,0,1,1,1.09V14.6H7v.93H9.71V14.6H9V11.54A1.61,1.61,0,0,0,7.26,9.9a2,2,0,0,0-1.86.95"/><path class="cls-3" d="M.62,8.31a.79.79,0,1,0,.79-.77.78.78,0,0,0-.79.77"/><polygon class="cls-3" points="1.91 9.99 0 9.99 0 10.88 0.79 10.88 0.79 14.6 0.05 14.6 0.05 15.54 2.86 15.54 2.86 14.6 2.07 14.6 2.07 9.99 1.91 9.99"/></svg>