<svg id="Layer_1" data-name="Layer 1" xmlns="http://www.w3.org/2000/svg" width="20" height="25" viewBox="0 0 20 25"><defs><style>.cls-1{fill:#231f20;}.cls-2{fill:#ed192d;}</style></defs><title>icons2</title><polygon class="cls-1" points="0 9.8 0 13.67 3 13.67 3 12.77 1.26 12.77 1.26 9.8 0 9.8"/><rect class="cls-1" x="12.58" y="9.8" width="1.11" height="3.86"/><path class="cls-1" d="M17.22,9.83A1.13,1.13,0,0,0,16,11.05h.7c0-.13,0-.62.52-.62a.45.45,0,0,1,.47.49c0,.49-.41.51-.64.51h-.12V12c.35,0,.86,0,.86.54a.56.56,0,0,1-.57.62.58.58,0,0,1-.56-.66h-.73a1.19,1.19,0,0,0,1.33,1.27,1.2,1.2,0,0,0,1.3-1.22.83.83,0,0,0-.58-.88v0a.77.77,0,0,0,.46-.72A1.06,1.06,0,0,0,17.22,9.83Z"/><polygon class="cls-1" points="6.13 10.86 7.1 13.67 8.35 13.67 9.3 10.86 8.22 10.86 7.74 12.63 7.24 10.86 6.13 10.86"/><path class="cls-1" d="M4.77,13.06a.53.53,0,0,1-.55-.54H6.35a1.59,1.59,0,0,0-1.66-1.74A1.49,1.49,0,0,0,3.1,12.29a1.44,1.44,0,0,0,1.6,1.45,1.46,1.46,0,0,0,1.55-.93H5.19A.45.45,0,0,1,4.77,13.06Zm0-1.6a.51.51,0,0,1,.5.49h-1A.46.46,0,0,1,4.73,11.46Z"/><path class="cls-1" d="M10.8,13.06a.54.54,0,0,1-.56-.54h2.13a1.58,1.58,0,0,0-1.65-1.74,1.49,1.49,0,0,0-1.59,1.51,1.44,1.44,0,0,0,1.6,1.45,1.46,1.46,0,0,0,1.55-.93H11.22A.46.46,0,0,1,10.8,13.06Zm0-1.6a.51.51,0,0,1,.5.49h-1A.47.47,0,0,1,10.76,11.46Z"/><path id="path2468" class="cls-2" d="M15.94,9.29a2.83,2.83,0,0,0,0,5v-.16c-.57-.35-.86-.76-.86-2.34,0-1.78.37-2,.86-2.36Zm2.55,0v.16c.48.32.85.58.85,2.36,0,1.58-.29,2-.85,2.34v.16a2.84,2.84,0,0,0,0-5Z"/></svg>