<svg id="Layer_1" data-name="Layer 1" xmlns="http://www.w3.org/2000/svg" viewBox="0 0 52.47 46.3"><defs><style>.cls-1{fill:#58595b;}.cls-1,.cls-2,.cls-3{fill-rule:evenodd;}.cls-2{fill:#5bc0cf;}.cls-3{fill:#965dce;}</style></defs><path class="cls-1" d="M152.47,124h0a1.55,1.55,0,0,1,1.57,1.49v43.29a1.55,1.55,0,0,1-1.57,1.52h0a1.52,1.52,0,0,1-1.54-1.52V125.49a1.52,1.52,0,0,1,1.54-1.49Z" transform="translate(-126.53 -124)"/><polygon class="cls-2" points="6.44 5.26 38.56 5.16 46.9 12.73 38.56 20.2 0 20.2 12.49 11.59 6.44 5.26"/><polygon class="cls-3" points="46.04 39.44 13.91 39.54 5.57 31.96 13.91 24.49 52.47 24.49 39.98 33.1 46.04 39.44"/></svg>