<?xml version="1.0" encoding="utf-8"?>
<!-- Generator: Adobe Illustrator 23.0.2, SVG Export Plug-In . SVG Version: 6.00 Build 0)  -->
<svg version="1.1" id="Layer_1" xmlns="http://www.w3.org/2000/svg" xmlns:xlink="http://www.w3.org/1999/xlink" x="0px" y="0px"
	 width="22px" height="23px" viewBox="0 0 22 23" style="enable-background:new 0 0 22 23;" xml:space="preserve">
<style type="text/css">
	.st0{fill:#9E005D;}
	.st1{fill:url(#SVGID_1_);}
	.st2{fill:url(#SVGID_2_);}
	.st3{fill:#FFFFFF;}
	.st4{fill:#0071BC;}
	.st5{fill:url(#SVGID_3_);}
	.st6{fill:url(#SVGID_4_);}
	.st7{fill:#009245;}
	.st8{fill:url(#SVGID_5_);}
	.st9{fill:url(#SVGID_6_);}
	.st10{fill:#F15A24;}
	.st11{fill:url(#SVGID_7_);}
	.st12{fill:url(#SVGID_8_);}
	.st13{fill:#C1272D;}
	.st14{fill:url(#SVGID_9_);}
	.st15{fill:url(#SVGID_10_);}
	.st16{fill:url(#SVGID_11_);}
	.st17{fill:url(#SVGID_12_);}
	.st18{fill:#00A99D;}
	.st19{fill:none;stroke:#00457A;stroke-miterlimit:10;}
	.st20{fill:#00457A;}
	.st21{fill:#003366;}
	.st22{fill:none;stroke:#0071BC;stroke-width:0.8;stroke-miterlimit:10;}
	.st23{fill:none;stroke:#C1272D;stroke-width:0.5;stroke-miterlimit:10;}
	.st24{fill:none;stroke:#0071BC;stroke-width:0.5;stroke-miterlimit:10;}
	.st25{fill:none;stroke:#0071BC;stroke-miterlimit:10;}
	.st26{fill:none;stroke:#C1272D;stroke-width:0.8;stroke-miterlimit:10;}
	.st27{fill:none;stroke:#C1272D;stroke-miterlimit:10;}
</style>
<circle class="st26" cx="10.2" cy="16.2" r="2"/>
<circle class="st26" cx="13.5" cy="6.9" r="2"/>
<circle class="st26" cx="5.7" cy="10.3" r="2"/>
<circle class="st27" cx="11" cy="11.4" r="10.3"/>
<path class="st27" d="M15.5,7.6c2,2.5,3.3,5.8,3.3,9.3c0,0.4,0,0.8-0.1,1.3"/>
<path class="st27" d="M6.8,2.3C9,2.7,11,3.6,12.7,4.9"/>
<path class="st27" d="M15,5.5c1-0.7,2.2-1.1,3.4-1.4"/>
<path class="st27" d="M10.2,14.2c0-2.2,0.7-4.3,1.9-6"/>
<path class="st27" d="M13.2,21.5c-0.9-0.9-1.7-2-2.2-3.3"/>
<path class="st27" d="M15.5,6.8c2.3,0.5,4.4,1.9,5.8,3.7"/>
<path class="st27" d="M6.8,8.7c1.3-1,2.9-1.7,4.6-2"/>
<path class="st27" d="M2.9,17.7c0-0.3,0-0.5,0-0.8c0-1.9,0.5-3.6,1.4-5.1"/>
<path class="st27" d="M5.2,8.3c0-0.3,0-0.5,0-0.8c0-2,0.6-4,1.6-5.6"/>
<path class="st27" d="M8.5,15.1c-0.9-0.8-1.7-1.8-2.2-2.9"/>
<path class="st27" d="M19.8,16.9c-1.3,0.6-2.8,0.9-4.3,0.9c-1.2,0-2.4-0.2-3.5-0.6"/>
</svg>
