<svg id="Layer_1" data-name="Layer 1" xmlns="http://www.w3.org/2000/svg" width="20" height="25" viewBox="0 0 20 25"><defs><style>.cls-1{fill:#007dc1;}</style></defs><title>icons2</title><path class="cls-1" d="M2.51,9.51A2.52,2.52,0,1,0,5,12,2.51,2.51,0,0,0,2.51,9.51Zm0,3.77A1.26,1.26,0,1,1,3.77,12,1.26,1.26,0,0,1,2.51,13.28Z"/><path class="cls-1" d="M6.93,12.87a.22.22,0,0,1,.38-.16C7.94,13.35,9,14.45,9,14.46a.18.18,0,0,0,.09.06h1.24a.22.22,0,0,0,.17-.36L8.61,12.25l-.1-.1c-.21-.26-.19-.36.06-.62l1.49-1.66a.22.22,0,0,0-.18-.35H8.75a.21.21,0,0,0-.1.06L7.31,11a.23.23,0,0,1-.39-.16V8a.2.2,0,0,0-.21-.2H5.87c-.15,0-.22.09-.22.18v6.33c0,.14.12.18.22.18h.84a.2.2,0,0,0,.22-.19V12.87Z"/><path class="cls-1" d="M13.79,14.3l-.09-.84a.2.2,0,0,0-.23-.18l-.2,0A1.26,1.26,0,0,1,12,12.11V11a.24.24,0,0,1,.23-.25h1.13a.21.21,0,0,0,.2-.21v-.8a.21.21,0,0,0-.19-.23H12.25A.24.24,0,0,1,12,9.29V8a.2.2,0,0,0-.21-.2H11a.19.19,0,0,0-.2.19v4.1a2.5,2.5,0,0,0,2.51,2.44l.34,0A.2.2,0,0,0,13.79,14.3Z"/><path class="cls-1" d="M19.85,13.24C19.14,13.24,19,13,19,12h0V9.73a.22.22,0,0,0-.22-.22H18a.23.23,0,0,0-.22.22v.1a2.47,2.47,0,0,0-1.24-.33,2.52,2.52,0,0,0,0,5,2.54,2.54,0,0,0,1.64-.6,1.34,1.34,0,0,0,1.21.6c.1,0,.64,0,.64-.23v-.9A.16.16,0,0,0,19.85,13.24Zm-3.33,0a1.26,1.26,0,0,1,0-2.52,1.26,1.26,0,1,1,0,2.52Z"/></svg>