<svg id="Layer_1" data-name="Layer 1" xmlns="http://www.w3.org/2000/svg" width="20" height="25" viewBox="0 0 20 25"><defs><style>.cls-1{fill:red;}.cls-2{fill:#fff;}</style></defs><title>icons2</title><rect class="cls-1" width="20" height="25"/><path class="cls-2" d="M8.68,12H10l-.7-1.13L8,12.94H7.43L9,10.48a.39.39,0,0,1,.31-.15.36.36,0,0,1,.3.15l1.57,2.46h-.59l-.27-.46H9L8.68,12Zm6.09.45V10.35h-.49v2.34a.21.21,0,0,0,.07.17.25.25,0,0,0,.18.08H16.8l.29-.46ZM6.54,12.1a.88.88,0,0,0,0-1.75H4.36v2.59h.5V10.81H6.5a.42.42,0,1,1,0,.83H5.1l1.49,1.3h.72l-1-.84Zm-5.24.84a1.3,1.3,0,1,1,0-2.59H2.8a1.3,1.3,0,1,1,0,2.59Zm1.47-.46a.84.84,0,1,0,0-1.67H1.33a.84.84,0,1,0,0,1.67Zm9.45.46a1.3,1.3,0,0,1,0-2.59H14l-.29.46H12.25a.84.84,0,0,0,0,1.67h1.8l-.29.46Zm6.09-.46a.84.84,0,0,1-.81-.61h2.13l.29-.45H17.5a.85.85,0,0,1,.81-.61h1.46l.29-.46H18.27a1.3,1.3,0,0,0,0,2.59h1.54l.29-.46Z"/></svg>