<?xml version="1.0" encoding="UTF-8" standalone="no"?>
<svg
   xmlns:dc="http://purl.org/dc/elements/1.1/"
   xmlns:cc="http://creativecommons.org/ns#"
   xmlns:rdf="http://www.w3.org/1999/02/22-rdf-syntax-ns#"
   xmlns:svg="http://www.w3.org/2000/svg"
   xmlns="http://www.w3.org/2000/svg"
   xmlns:sodipodi="http://sodipodi.sourceforge.net/DTD/sodipodi-0.dtd"
   xmlns:inkscape="http://www.inkscape.org/namespaces/inkscape"
   version="1.1"
   id="Layer_1"
   x="0px"
   y="0px"
   viewBox="0 0 25 25"
   xml:space="preserve"
   sodipodi:docname="refresh_icon.svg"
   width="25"
   height="25"
   inkscape:version="1.0.2 (e86c8708, 2021-01-15)"><metadata
   id="metadata108"><rdf:RDF><cc:Work
       rdf:about=""><dc:format>image/svg+xml</dc:format><dc:type
         rdf:resource="http://purl.org/dc/dcmitype/StillImage" /><dc:title></dc:title></cc:Work></rdf:RDF></metadata><defs
   id="defs106" /><sodipodi:namedview
   pagecolor="#ffffff"
   bordercolor="#666666"
   borderopacity="1"
   objecttolerance="10"
   gridtolerance="10"
   guidetolerance="10"
   inkscape:pageopacity="0"
   inkscape:pageshadow="2"
   inkscape:window-width="1280"
   inkscape:window-height="631"
   id="namedview104"
   showgrid="false"
   inkscape:zoom="1.76"
   inkscape:cx="86.36"
   inkscape:cy="98.21"
   inkscape:window-x="0"
   inkscape:window-y="23"
   inkscape:window-maximized="0"
   inkscape:current-layer="Layer_1"
   inkscape:document-rotation="0" />
<style
   type="text/css"
   id="style99">
	.st0{fill:#5BC0CF;}
</style>
<path
   class="st0"
   d="m 22.684144,16.336757 c -1.623695,3.800667 -5.430583,6.256247 -9.700352,6.256247 -5.7809884,0 -10.4833591,-4.526652 -10.4833591,-10.091616 0,-5.5649637 4.7023707,-10.0916159 10.4833591,-10.0916159 2.258176,0 4.411086,0.6843422 6.197727,1.9503058 l -2.258176,1.4117157 7.338351,3.595225 -0.434042,-7.9150472 -2.432658,1.522765 C 19.048855,1.0494171 16.098518,0 12.985234,0 5.8242486,0 0,5.6079957 0,12.5 0,19.393393 5.8256907,25 12.985234,25 15.609679,25 18.138951,24.249029 20.299071,22.830372 22.407279,21.445031 24.032416,19.516935 25,17.251527 Z"
   id="path101"
   style="stroke-width:0.141481" />
</svg>
