<svg id="Layer_1" data-name="Layer 1" xmlns="http://www.w3.org/2000/svg" width="20" height="25" viewBox="0 0 20 25"><defs><style>.cls-1{fill:#00a1e0;}.cls-2{fill:#fff;}</style></defs><title>icons2</title><path class="cls-1" d="M8.32,6.38a3.51,3.51,0,0,1,5.62.74,4.34,4.34,0,1,1,1.75,8.33,4,4,0,0,1-.85-.09,3.14,3.14,0,0,1-4.13,1.3A3.6,3.6,0,0,1,4,16.5a3.82,3.82,0,0,1-.68.07A3.35,3.35,0,0,1,0,13.19a3.39,3.39,0,0,1,1.67-2.92,3.76,3.76,0,0,1-.32-1.54,3.88,3.88,0,0,1,7-2.35"/><path class="cls-2" d="M2.9,12.11s0,0,0,.05l.11.06a1.2,1.2,0,0,0,.6.14c.41,0,.66-.21.66-.57h0c0-.33-.28-.45-.55-.53h0c-.2-.07-.38-.12-.38-.26h0c0-.11.1-.19.26-.19a1.08,1.08,0,0,1,.52.13s0,0,.06,0l.08-.23s0,0,0,0a1.1,1.1,0,0,0-.59-.16h0A.57.57,0,0,0,3,11H3c0,.34.28.45.56.53h0c.2.06.37.11.37.25h0c0,.13-.11.22-.29.22a1,1,0,0,1-.53-.15l-.07,0s0,0,0,0l-.08.22Z"/><path class="cls-2" d="M8.9,12.11s0,0,0,.05l.12.06a1.16,1.16,0,0,0,.59.14c.41,0,.67-.21.67-.57h0c0-.33-.29-.45-.56-.53h0c-.21-.07-.38-.12-.38-.26h0c0-.11.1-.19.26-.19a1.08,1.08,0,0,1,.52.13s0,0,.05,0l.09-.23a0,0,0,0,0,0,0,1.13,1.13,0,0,0-.59-.16h0A.57.57,0,0,0,9,11H9c0,.34.29.45.56.53h.05c.19.06.36.11.36.25h0c0,.13-.11.22-.29.22a.93.93,0,0,1-.52-.15l-.07,0s0,0-.06,0l-.08.22Z"/><path class="cls-2" d="M13,11.42a.8.8,0,0,1-.11.47.42.42,0,0,1-.66,0,.88.88,0,0,1-.11-.47.84.84,0,0,1,.11-.46.42.42,0,0,1,.66,0,.77.77,0,0,1,.11.46m.35-.37a.9.9,0,0,0-.16-.29.73.73,0,0,0-.26-.2.9.9,0,0,0-.74,0,.73.73,0,0,0-.26.2.9.9,0,0,0-.16.29,1.5,1.5,0,0,0,0,.37,1.44,1.44,0,0,0,0,.37,1.08,1.08,0,0,0,.16.3.86.86,0,0,0,.26.2,1,1,0,0,0,.74,0,.86.86,0,0,0,.26-.2,1.08,1.08,0,0,0,.16-.3,1.44,1.44,0,0,0,.05-.37,1.5,1.5,0,0,0-.05-.37"/><path class="cls-2" d="M16.16,12s-.05,0-.05,0L16,12l-.18,0a.5.5,0,0,1-.39-.15.65.65,0,0,1-.15-.47.75.75,0,0,1,.13-.45.45.45,0,0,1,.38-.17,1.3,1.3,0,0,1,.36,0s0,0,0,0,.05-.14.09-.23,0,0,0,0L16,10.5l-.26,0a1.07,1.07,0,0,0-.38.07.84.84,0,0,0-.28.2,1.11,1.11,0,0,0-.17.3,1.44,1.44,0,0,0-.05.37,1,1,0,0,0,.23.68.86.86,0,0,0,.67.26,1.43,1.43,0,0,0,.49-.09s0,0,0,0L16.16,12Z"/><path class="cls-2" d="M16.76,11.23a.54.54,0,0,1,.09-.27.37.37,0,0,1,.33-.17.38.38,0,0,1,.33.17.57.57,0,0,1,.07.27ZM17.91,11a.68.68,0,0,0-.15-.27.65.65,0,0,0-.22-.17.84.84,0,0,0-.33-.07.86.86,0,0,0-.38.08.79.79,0,0,0-.27.2,1.08,1.08,0,0,0-.16.3,1.5,1.5,0,0,0,0,.37,1.38,1.38,0,0,0,0,.37,1.11,1.11,0,0,0,.17.3,1,1,0,0,0,.29.19,1.32,1.32,0,0,0,.42.07,1.19,1.19,0,0,0,.59-.12,0,0,0,0,0,0-.05L17.8,12a0,0,0,0,0,0,0,1.11,1.11,0,0,1-.48.09.5.5,0,0,1-.39-.14.53.53,0,0,1-.14-.38h1.16a0,0,0,0,0,0,0,1.12,1.12,0,0,0,0-.5Z"/><path class="cls-2" d="M7.47,11.23a.66.66,0,0,1,.1-.27.37.37,0,0,1,.33-.17.35.35,0,0,1,.32.17.57.57,0,0,1,.08.27ZM8.63,11a.84.84,0,0,0-.15-.27.77.77,0,0,0-.22-.17.88.88,0,0,0-.33-.07.93.93,0,0,0-.39.08.86.86,0,0,0-.26.2.87.87,0,0,0-.16.3,1.14,1.14,0,0,0,0,.37,1.38,1.38,0,0,0,0,.37.9.9,0,0,0,.17.3.77.77,0,0,0,.29.19,1.32,1.32,0,0,0,.42.07,1.14,1.14,0,0,0,.58-.12s0,0,0-.05L8.52,12s0,0,0,0A1.09,1.09,0,0,1,8,12a.54.54,0,0,1-.4-.14.53.53,0,0,1-.13-.38H8.63a0,0,0,0,0,0,0,1.32,1.32,0,0,0,0-.5Z"/><path class="cls-2" d="M5,12l-.07-.07a.28.28,0,0,1,0-.15.25.25,0,0,1,.1-.22.53.53,0,0,1,.34-.09l.31,0V12h0a2.63,2.63,0,0,1-.31,0A.53.53,0,0,1,5,12m.46-.81H5.25a.92.92,0,0,0-.29,0,.66.66,0,0,0-.24.11.52.52,0,0,0-.17.19.6.6,0,0,0-.06.27.67.67,0,0,0,0,.26.45.45,0,0,0,.15.18.66.66,0,0,0,.24.11,1.42,1.42,0,0,0,.31,0,2.07,2.07,0,0,0,.35,0l.29-.06.08,0a0,0,0,0,0,0,0V11.15a.63.63,0,0,0-.19-.51.76.76,0,0,0-.53-.16,1.55,1.55,0,0,0-.31,0,1.21,1.21,0,0,0-.36.13s0,0,0,0l.09.22s0,0,0,0h0a1.09,1.09,0,0,1,.51-.12.45.45,0,0,1,.28.07c.07.05.1.13.1.28v0l-.19,0"/><path class="cls-2" d="M14.78,10.58s0,0,0,0l-.19,0a.71.71,0,0,0-.3.05.59.59,0,0,0-.2.15v-.14s0,0,0,0h-.3s0,0,0,0v1.72s0,0,0,0h.31s0,0,0,0v-.86a1.14,1.14,0,0,1,0-.3.45.45,0,0,1,.1-.17.34.34,0,0,1,.15-.09.41.41,0,0,1,.15,0h.13s0,0,0,0l.09-.24"/><path class="cls-2" d="M11.92,9.78l-.12,0h-.15a.68.68,0,0,0-.49.17,1,1,0,0,0-.24.53v.08h-.26s0,0,0,0l0,.24s0,0,0,0h.26l-.26,1.45c0,.12,0,.21-.07.29a.79.79,0,0,1-.08.16.18.18,0,0,1-.11.08.27.27,0,0,1-.13,0h-.1l-.06,0a0,0,0,0,0,0,0l-.09.24a0,0,0,0,0,0,0,.29.29,0,0,0,.11,0,.5.5,0,0,0,.17,0,.82.82,0,0,0,.28,0,.51.51,0,0,0,.21-.15.84.84,0,0,0,.15-.26,2.66,2.66,0,0,0,.11-.39l.26-1.48h.38a0,0,0,0,0,0,0l0-.24s0,0,0,0h-.37s0-.14.06-.26a.33.33,0,0,1,.09-.13.18.18,0,0,1,.09-.06h.22l.06,0s0,0,0,0l.09-.24s0,0,0,0"/><path class="cls-2" d="M6.74,12.28s0,0,0,0H6.4s0,0,0,0V9.81a0,0,0,0,1,0,0h.31a0,0,0,0,1,0,0v2.47Z"/></svg>