<svg id="Layer_1" data-name="Layer 1" xmlns="http://www.w3.org/2000/svg" width="20" height="25" viewBox="0 0 20 25"><defs><style>.cls-1{fill:#014185;}.cls-2{fill:#fff;fill-rule:evenodd;}</style></defs><title>icons2</title><g id="layer1"><path id="path25030" class="cls-1" d="M0,16.37H10.1L20,6.47H0v9.9"/><path id="path25032" class="cls-2" d="M11.86,8.33h-2V13L8.18,8.33H6.5L5,12.25c-.16-1-1.17-1.33-2-1.58-.51-.18-1.09-.43-1-.7s.27-.44.86-.41A3.24,3.24,0,0,1,4.27,10L5,8.76a5.36,5.36,0,0,0-2.23-.53h0A2.73,2.73,0,0,0,.74,9,1.78,1.78,0,0,0,.27,10.1a1.64,1.64,0,0,0,.67,1.37,4.64,4.64,0,0,0,1.37.61c.55.17,1,.32,1,.64a.42.42,0,0,1-.12.3.93.93,0,0,1-.67.2,2.69,2.69,0,0,1-1.6-.46L.27,14a4.57,4.57,0,0,0,2.23.6h.12A2.75,2.75,0,0,0,4.31,14s0,0,.07-.06l-.19.52H6l.27-.91a3.36,3.36,0,0,0,2.08,0l.31.9h2.9V12.56h.66c1.53,0,2.43-.78,2.43-2.09C14.64,9,13.78,8.33,11.86,8.33Zm-4.54,4a1.81,1.81,0,0,1-.63-.11l.63-2h0l.63,2A2.13,2.13,0,0,1,7.32,12.34ZM12,11.21h-.43V9.62H12c.58,0,1,.19,1,.79s-.47.8-1,.8"/></g></svg>