<svg id="Layer_1" data-name="Layer 1" xmlns="http://www.w3.org/2000/svg" width="20" height="25" viewBox="0 0 20 25"><defs><style>.cls-1{fill:#293e40;}.cls-1,.cls-2{fill-rule:evenodd;}.cls-2{fill:#81b5a1;}</style></defs><title>icons2</title><g id="Layer_1-2" data-name="Layer 1-2"><path class="cls-1" d="M0,13.32V8.07H1.39V8.5A2.24,2.24,0,0,1,2.87,8a2.34,2.34,0,0,1,1.81.84,2.67,2.67,0,0,1,.54,1.84v2.67H3.82V10.54a1.24,1.24,0,0,0-.32-1,1.07,1.07,0,0,0-.78-.29,1.69,1.69,0,0,0-1.28.64v3.42Z"/><path class="cls-2" d="M8.83,8a3.07,3.07,0,0,0-3.07,3.08,3,3,0,0,0,1,2.21.58.58,0,0,0,.78,0,2.22,2.22,0,0,1,2.62,0,.6.6,0,0,0,.8,0A3.08,3.08,0,0,0,8.83,8m0,4.6a1.5,1.5,0,0,1-1.54-1.44V11a1.53,1.53,0,0,1,3.06-.1V11a1.49,1.49,0,0,1-1.45,1.53H8.8"/><polygon class="cls-1" points="14.64 13.32 13.59 13.32 11.51 8.07 12.91 8.07 14.05 11.07 15.17 8.07 16.34 8.07 17.45 11.07 18.6 8.07 20 8.07 17.92 13.32 16.88 13.32 15.76 10.34 14.64 13.32"/></g></svg>