<?xml version="1.0" encoding="utf-8"?>
<!-- Generator: Adobe Illustrator 23.0.2, SVG Export Plug-In . SVG Version: 6.00 Build 0)  -->
<svg version="1.1" id="Layer_1" xmlns="http://www.w3.org/2000/svg" xmlns:xlink="http://www.w3.org/1999/xlink" x="0px" y="0px"
	 width="11px" height="17px" viewBox="0 0 11 17" style="enable-background:new 0 0 11 17;" xml:space="preserve">
<style type="text/css">
	.st0{fill:#9E005D;}
	.st1{fill:url(#SVGID_1_);}
	.st2{fill:url(#SVGID_2_);}
	.st3{fill:#FFFFFF;}
	.st4{fill:#0071BC;}
	.st5{fill:url(#SVGID_3_);}
	.st6{fill:url(#SVGID_4_);}
	.st7{fill:#009245;}
	.st8{fill:url(#SVGID_5_);}
	.st9{fill:url(#SVGID_6_);}
	.st10{fill:#F15A24;}
	.st11{fill:url(#SVGID_7_);}
	.st12{fill:url(#SVGID_8_);}
	.st13{fill:#C1272D;}
	.st14{fill:url(#SVGID_9_);}
	.st15{fill:url(#SVGID_10_);}
	.st16{fill:url(#SVGID_11_);}
	.st17{fill:url(#SVGID_12_);}
	.st18{fill:#00A99D;}
	.st19{fill:none;stroke:#00457A;stroke-miterlimit:10;}
	.st20{fill:#00457A;}
	.st21{fill:#003366;}
	.st22{fill:none;stroke:#0071BC;stroke-width:0.8;stroke-miterlimit:10;}
	.st23{fill:none;stroke:#C1272D;stroke-width:0.5;stroke-miterlimit:10;}
	.st24{fill:none;stroke:#0071BC;stroke-width:0.5;stroke-miterlimit:10;}
	.st25{fill:none;stroke:#0071BC;stroke-miterlimit:10;}
	.st26{fill:none;stroke:#C1272D;stroke-width:0.8;stroke-miterlimit:10;}
	.st27{fill:none;stroke:#C1272D;stroke-miterlimit:10;}
</style>
<path class="st7" d="M10.1,5.3c-0.1-6-9.2-6-9.3,0c0,0.1,0,1.2,0,1.2c0,2.1,2.3,5,4.6,9.4c2.3-4.4,4.6-7.4,4.6-9.4
	C10.1,6.4,10.1,5.3,10.1,5.3z"/>
<linearGradient id="SVGID_1_" gradientUnits="userSpaceOnUse" x1="3.1753" y1="-3.8261" x2="3.1753" y2="10.7826">
	<stop  offset="0" style="stop-color:#FFFFFF;stop-opacity:0.8"/>
	<stop  offset="1" style="stop-color:#FFFFFF;stop-opacity:0"/>
</linearGradient>
<path class="st1" d="M5.5,0.8c-2.3,0-4.6,1.5-4.6,4.5c0,0.1,0,1.2,0,1.2c0,2.1,2.3,5,4.6,9.4L5.5,0.8z"/>
<linearGradient id="SVGID_2_" gradientUnits="userSpaceOnUse" x1="5.6495" y1="11.5873" x2="5.6495" y2="16.8198">
	<stop  offset="0" style="stop-color:#000000;stop-opacity:0"/>
	<stop  offset="1" style="stop-color:#000000;stop-opacity:0.6"/>
</linearGradient>
<path class="st2" d="M10.1,12.9c-0.1-2.3-8.9-2.3-9,0c0,0,0,0.4,0,0.5c0,0.8,2.2,1.9,4.5,3.6c2.2-1.7,4.5-2.8,4.5-3.6
	C10.1,13.4,10.1,12.9,10.1,12.9z"/>
<g>
	<circle class="st3" cx="5.5" cy="6" r="1.9"/>
</g>
</svg>
