<svg id="Layer_1" data-name="Layer 1" xmlns="http://www.w3.org/2000/svg" width="20" height="25" viewBox="0 0 20 25"><defs><style>.cls-1{fill:#cf122e;}.cls-2{fill:#fff;}</style></defs><title>icons2</title><rect class="cls-1" width="20" height="25"/><path class="cls-2" d="M1.11,12.27V11a.78.78,0,0,1,.48-.75.75.75,0,0,1,.82.11.82.82,0,0,1,.29.67v2.42a.79.79,0,0,1-.72.85.72.72,0,0,1-.49-.12.83.83,0,0,1-.38-.77V12.26Z"/><path class="cls-2" d="M12.75,10.8V12a.8.8,0,0,1-.71.88H12a.77.77,0,0,1-.78-.61,1.43,1.43,0,0,1,0-.29V9.66a.87.87,0,0,1,.37-.8.78.78,0,0,1,1.08.22,1,1,0,0,1,.11.28.86.86,0,0,1,0,.17V10.8Z"/><path class="cls-2" d="M15.19,11.13V9.88a.78.78,0,0,1,.74-.82h0a.79.79,0,0,1,.8.76v2.6a.78.78,0,0,1-.79.78h0a.78.78,0,0,1-.76-.78v-.09c0-.41,0-.81,0-1.2Z"/><path class="cls-2" d="M3.14,11.23V10a.79.79,0,0,1,.75-.81.77.77,0,0,1,.8.73c0,.89,0,1.78,0,2.68a.77.77,0,0,1-.79.74h0a.75.75,0,0,1-.75-.77V11.23Z"/><path class="cls-2" d="M7.15,10.74V9.52a.79.79,0,0,1,.75-.84h0a.79.79,0,0,1,.8.79V12a.77.77,0,0,1-.67.83H7.93a.76.76,0,0,1-.78-.75.27.27,0,0,1,0-.09V10.74Z"/><path class="cls-2" d="M13.19,12.25V11a.77.77,0,0,1,.69-.79.78.78,0,0,1,.85.65.48.48,0,0,1,0,.17v2.5a.78.78,0,0,1-.72.81.77.77,0,0,1-.84-.7v-.09c0-.43,0-.85,0-1.27Z"/><path class="cls-2" d="M17.2,10.21V9a.75.75,0,0,1,.69-.82H18a.77.77,0,0,1,.8.73v2.6a.77.77,0,0,1-.75.79h0a.77.77,0,0,1-.78-.75.13.13,0,0,1,0-.06C17.19,11.06,17.2,10.63,17.2,10.21Z"/><path class="cls-2" d="M5.15,9.81V8.56a.74.74,0,0,1,.7-.78.73.73,0,0,1,.84.61.38.38,0,0,1,0,.1v2.68a.78.78,0,0,1-1.55-.05V9.81Z"/><path class="cls-2" d="M10.72,9.13v1.24a.77.77,0,0,1-.72.82H10a.77.77,0,0,1-.79-.77V7.88a.76.76,0,0,1,.71-.81H10a.76.76,0,0,1,.74.77V9.13Z"/></svg>